<?xml version="1.0" encoding="UTF-8"?><svg id="Layer_1" xmlns="http://www.w3.org/2000/svg" viewBox="0 0 24 24"><defs><style>.cls-1{fill:none;stroke:#68a2fe;stroke-linecap:round;stroke-linejoin:round;stroke-width:1.5px;}.cls-2{fill:#68a2fe;}</style></defs><path class="cls-1" d="m4.24,9.7l.15-7.35c0-.78.64-1.42,1.42-1.42h11.67v4.73h5.23v16.2c0,.78-.64,1.42-1.42,1.42H5.81c-.78,0-1.42-.64-1.42-1.42v-1.94"/><line class="cls-1" x1="17.48" y1=".92" x2="22.71" y2="5.65"/><path class="cls-1" d="m4.16,6.76h-1.4c-.81,0-1.47.66-1.47,1.47h0c0,.81.66,1.47,1.47,1.47h1.49"/><path class="cls-1" d="m1.29,8.23v9.97c0,.95.77,1.73,1.73,1.73h10.19c.32,0,.6-.19.72-.48l1.84-4.33c.08-.2.08-.42,0-.62l-1.84-4.33c-.12-.29-.41-.48-.72-.48H3.57"/><path class="cls-2" d="m11.83,12.06l-1.61,6.02h-1.14l-1.2-4.43-1.09,4.43h-1.12l-1.64-6.02h1.15l1.16,4.39,1.08-4.39h1.1l1.2,4.39,1.14-4.39h.96Z"/></svg>