<?xml version="1.0" encoding="UTF-8"?><svg id="Layer_1" xmlns="http://www.w3.org/2000/svg" viewBox="0 0 24 24"><defs><style>.cls-1{fill:#3c9b37;}.cls-2{stroke-width:1.5px;}.cls-2,.cls-3{fill:none;stroke:#3c9b37;stroke-linecap:round;stroke-linejoin:round;}.cls-3{stroke-width:.9px;}</style></defs><path class="cls-2" d="m4.24,9.59l.15-7.35c0-.78.64-1.42,1.42-1.42h11.67v4.73h5.23v16.2c0,.78-.64,1.42-1.42,1.42H5.81c-.78,0-1.42-.64-1.42-1.42v-1.94"/><line class="cls-2" x1="17.48" y1=".82" x2="22.71" y2="5.55"/><path class="cls-2" d="m4.16,6.66h-1.4c-.81,0-1.47.66-1.47,1.47h0c0,.81.66,1.47,1.47,1.47h1.49"/><path class="cls-2" d="m1.29,8.13v9.97c0,.95.77,1.73,1.73,1.73h10.19c.32,0,.6-.19.72-.48l1.84-4.33c.08-.2.08-.42,0-.62l-1.84-4.33c-.12-.29-.41-.48-.72-.48H3.57"/><path class="cls-1" d="m7.39,14.7l-2.02-2.89h1.36l1.43,2.24,1.41-2.24h1.31l-1.98,2.89,2.2,3.16h-1.37l-1.6-2.55-1.59,2.55h-1.3l2.15-3.16Z"/><rect class="cls-3" x="6.98" y="7.58" width="5.84" height="2.02"/><rect class="cls-3" x="14.26" y="7.58" width="5.84" height="2.02"/><polygon class="cls-3" points="20.1 13.01 15.17 13.01 14.26 10.99 20.1 10.99 20.1 13.01"/><polygon class="cls-3" points="20.1 16.54 15.34 16.54 16.08 14.53 20.1 14.53 20.1 16.54"/><rect class="cls-3" x="14.26" y="18.06" width="5.84" height="2.02"/></svg>