<?xml version="1.0" encoding="UTF-8"?><svg id="Layer_1" xmlns="http://www.w3.org/2000/svg" viewBox="0 0 24 24"><defs><style>.cls-1{stroke-linejoin:round;stroke-width:1.5px;}.cls-1,.cls-2{fill:none;stroke:#b2476b;stroke-linecap:round;}.cls-2{stroke-miterlimit:10;}</style></defs><path class="cls-1" d="m21.04,5.64v15.99c0,.77-.63,1.4-1.4,1.4H4.36c-.77,0-1.4-.63-1.4-1.4V2.37c0-.77.63-1.4,1.4-1.4h11.51v4.67h5.16Z"/><line class="cls-1" x1="15.88" y1=".97" x2="21.04" y2="5.64"/><line class="cls-2" x1="5.91" y1="11.3" x2="5.91" y2="13.94"/><line class="cls-2" x1="15.05" y1="11.49" x2="15.05" y2="14.13"/><line class="cls-2" x1="7.43" y1="10.72" x2="7.43" y2="14.7"/><line class="cls-2" x1="18.09" y1="10.66" x2="18.09" y2="14.64"/><line class="cls-2" x1="13.52" y1="10.72" x2="13.52" y2="14.7"/><line class="cls-2" x1="8.95" y1="8.41" x2="8.95" y2="16.89"/><line class="cls-2" x1="10.48" y1="10.44" x2="10.48" y2="15.03"/><line class="cls-2" x1="12" y1="9.06" x2="12" y2="16.4"/><line class="cls-2" x1="16.57" y1="9.04" x2="16.57" y2="16.38"/></svg>