<?xml version="1.0" encoding="UTF-8"?><svg id="Layer_1" xmlns="http://www.w3.org/2000/svg" viewBox="0 0 24 24"><defs><style>.cls-1{fill:#61b774;}.cls-2{fill:none;stroke:#61b774;stroke-miterlimit:10;stroke-width:1.5px;}</style></defs><rect class="cls-2" x="7.66" y="1.06" width="8.67" height="4.47" rx=".76" ry=".76"/><path class="cls-2" d="m16.34,3.29h3.25c.8,0,1.44.65,1.44,1.44v16.92c0,.8-.65,1.44-1.44,1.44H4.41c-.8,0-1.44-.65-1.44-1.44V4.73c0-.8.65-1.44,1.44-1.44h3.25"/><path class="cls-1" d="m12.66,16.11h-1.53v-1.06c0-.36.07-.63.22-.84.14-.2.46-.49.94-.87.74-.57,1.11-1.17,1.11-1.81,0-.48-.14-.86-.43-1.14-.29-.28-.67-.42-1.13-.42-1.07,0-1.71.74-1.9,2.23l-1.71-.31c.1-1.11.52-1.98,1.23-2.62.72-.63,1.58-.95,2.58-.95s1.82.3,2.47.89c.65.59.98,1.33.98,2.21,0,.44-.09.85-.27,1.25-.18.39-.38.7-.61.92s-.71.6-1.46,1.14c-.21.15-.34.3-.4.44-.06.14-.09.46-.09.94Zm.31,1.11v1.96h-1.84v-1.96h1.84Z"/></svg>