<?xml version="1.0" encoding="UTF-8"?><svg id="Layer_1" xmlns="http://www.w3.org/2000/svg" viewBox="0 0 24 24"><defs><style>.cls-1{stroke-width:1.5px;}.cls-1,.cls-2{fill:none;}.cls-1,.cls-2,.cls-3{stroke:#f4a800;stroke-linecap:round;stroke-linejoin:round;}.cls-2{stroke-width:.9px;}.cls-3{fill:#f4a800;stroke-width:.25px;}</style></defs><path class="cls-1" d="m10.37,17.44l-3.78-3.78c.34-1.2,1.67-4.01,3.31-5.94.58-.68,2.68-3.38,7.16-5.33,2.35-1.02,4.2-1.33,6.12-1.54-.21,1.91-.52,3.77-1.54,6.12-1.95,4.47-4.65,6.58-5.33,7.16-1.93,1.64-4.73,2.97-5.94,3.31Z"/><path class="cls-1" d="m10.67,6.85h-2.12c-2.05,0-3.96,1.05-5.07,2.77l-2.13,3.29c-.14.21,0,.5.26.51l4.97.25"/><path class="cls-1" d="m17.19,13.36v2.12c0,2.05-1.05,3.96-2.77,5.07l-3.29,2.13c-.21.14-.5,0-.51-.26l-.25-4.97"/><path class="cls-1" d="m6.6,13.67l-1.4,1.86c-.16.22-.14.52.05.72l2.54,2.54c.19.19.5.21.72.05l1.86-1.4"/><circle class="cls-1" cx="15.26" cy="8.78" r="1.95"/><line class="cls-2" x1="5.25" y1="19.07" x2="1.18" y2="23.14"/><line class="cls-2" x1="4.23" y1="18.05" x2="1.88" y2="20.39"/><line class="cls-2" x1="6.27" y1="20.1" x2="4.93" y2="21.43"/><circle class="cls-2" cx=".86" cy="21.37" r=".04"/><polygon class="cls-3" points="4.1 22.5 4.2 22.82 3.87 22.73 3.54 22.82 3.64 22.5 3.54 22.17 3.87 22.27 4.2 22.17 4.1 22.5"/></svg>