<?xml version="1.0" encoding="UTF-8"?><svg id="Layer_1" xmlns="http://www.w3.org/2000/svg" viewBox="0 0 24 24"><defs><style>.cls-1{fill:none;stroke:#9e6fb2;stroke-linecap:round;stroke-linejoin:round;stroke-width:1.5px;}</style></defs><polygon class="cls-1" points="4.09 14.04 4.09 14.04 4.09 14.04 4.09 14.04"/><path class="cls-1" d="m1.81,16.07v4.47c.24.62,1.11,1.19,2.28,1.65h0c1.87.73,4.71,1.19,7.9,1.19s6.04-.47,7.9-1.19h0c1.14-.44,2.01-1.01,2.28-1.6v-4.46"/><polygon class="cls-1" points="4.09 9.96 4.09 9.96 4.09 9.96 4.09 9.96"/><path class="cls-1" d="m22.19,12.43v3.64c0,.16-.03.31-.1.46-.23.5-.82.97-1.68,1.37-.06.03-.12.05-.18.08-.1.04-.21.09-.31.13h0c-1.87.73-4.71,1.19-7.9,1.19-2.29,0-4.41-.24-6.11-.65-.06-.02-.13-.03-.19-.05-.14-.03-.27-.07-.41-.11-.03,0-.07-.02-.1-.03-.19-.05-.37-.11-.54-.17-.19-.06-.37-.13-.55-.2h0c-1.17-.46-1.96-1.02-2.2-1.64-.05-.13-.08-.27-.08-.4v-3.68c.21.54.91,1.05,1.87,1.48.03.01.06.03.09.04.03.01.07.03.1.04.07.03.14.06.22.09h0s0,0,0,0c.18.07.36.13.55.2.17.06.35.11.54.17.03.01.07.02.1.03.06.02.12.03.19.05.07.02.15.04.22.06.06.02.13.03.19.05,1.7.41,3.82.65,6.11.65,3.19,0,6.04-.47,7.9-1.19h0s0,0,0,0c.11-.04.21-.08.31-.13.04-.02.09-.04.13-.06.92-.41,1.61-.91,1.84-1.42Z"/><line class="cls-1" x1="22.19" y1="12.43" x2="22.19" y2="12.05"/><path class="cls-1" d="m22.19,16.07v.43c-.23.5-.89.99-1.79,1.4"/><path class="cls-1" d="m5.89,18.66c-.06-.02-.13-.03-.19-.05"/><path class="cls-1" d="m4.09,18.11c-1.17-.46-2.04-1.03-2.28-1.65v-.39"/><line class="cls-1" x1="1.81" y1="12.39" x2="1.81" y2="12"/><path class="cls-1" d="m22.19,8.36v3.64c0,.16-.03.31-.1.46-.23.51-.84.99-1.74,1.4-.04.02-.08.04-.13.06-.1.04-.2.09-.31.13h0s0,0,0,0c-1.87.73-4.71,1.19-7.9,1.19-2.29,0-4.41-.24-6.11-.65-.06-.02-.13-.03-.19-.05-.07-.02-.15-.04-.22-.06-.06-.02-.12-.03-.19-.05-.03,0-.07-.02-.1-.03-.19-.05-.37-.11-.54-.17-.19-.06-.37-.13-.55-.2h0s0,0,0,0c-.07-.03-.15-.06-.22-.09-.03-.01-.07-.03-.1-.04-.03-.01-.06-.03-.09-.04-.06-.03-.12-.05-.18-.08-.85-.41-1.42-.88-1.61-1.38-.05-.13-.08-.27-.08-.4v-3.68c.21.54.91,1.05,1.87,1.48.03.01.06.03.09.04.03.01.07.03.1.04.07.03.14.06.22.09h0s0,0,0,0c.12.05.24.09.36.13.04.02.09.03.13.04.02,0,.04.01.06.02.04.02.09.03.13.04.05.02.09.03.14.05.09.03.18.05.27.08.03.01.07.02.1.03.12.03.25.07.38.1.85.22,1.82.39,2.86.51.06,0,.11.01.17.02.01,0,.02,0,.04,0,.12.01.25.03.37.04.1,0,.19.02.29.03.06,0,.13.01.19.02.11,0,.21.02.32.02.11,0,.22.01.34.02.1,0,.21.01.31.02.08,0,.16,0,.25.01.13,0,.25,0,.38.01.13,0,.26,0,.39,0,.14,0,.28,0,.43,0,3.19,0,6.04-.47,7.9-1.19h0s0,0,0,0c.18-.07.35-.14.51-.22.88-.4,1.54-.89,1.77-1.39Z"/><polyline class="cls-1" points="22.19 12 22.19 12.05 22.19 12.43"/><line class="cls-1" x1="22.19" y1="8.36" x2="22.19" y2="7.97"/><line class="cls-1" x1="1.81" y1="12.39" x2="1.81" y2="12"/><line class="cls-1" x1="1.81" y1="8.32" x2="1.81" y2="7.93"/><path class="cls-1" d="m22.19,3.85c0,.16-.03.31-.1.46-.27.59-1.04,1.13-2.18,1.58-1.87.73-4.72,1.19-7.91,1.19s-6.04-.47-7.91-1.19c-1.17-.46-1.96-1.02-2.2-1.63-.05-.13-.08-.27-.08-.4C1.81,2.07,6.38.62,12,.62s10.19,1.45,10.19,3.23Z"/><path class="cls-1" d="m22.19,7.93c0,.16-.03.31-.1.46-.22.5-.81.96-1.67,1.36-.16.07-.33.15-.51.22h0s0,0,0,0c-1.87.73-4.71,1.19-7.9,1.19-.14,0-.29,0-.43,0-.13,0-.26,0-.39,0-.13,0-.25,0-.38-.01-.08,0-.16,0-.25-.01-.1,0-.21,0-.31-.02-.11,0-.22-.01-.34-.02-.11,0-.21-.01-.32-.02-.06,0-.13,0-.19-.02-.1,0-.2-.02-.29-.03-.13-.01-.25-.02-.37-.04-.01,0-.02,0-.04,0-.06,0-.11-.01-.17-.02-1.04-.12-2.01-.29-2.86-.51-.13-.03-.26-.07-.38-.1-.03,0-.07-.02-.1-.03-.09-.03-.18-.05-.27-.08-.05-.01-.09-.03-.14-.05-.04-.01-.09-.03-.13-.04-.02,0-.04-.01-.06-.02-.04-.01-.09-.03-.13-.04-.13-.04-.24-.09-.36-.13h0s0,0,0,0c-.07-.03-.15-.06-.22-.09-.03-.01-.07-.03-.1-.04-.03-.01-.06-.03-.09-.04-.95-.42-1.58-.92-1.79-1.46-.05-.13-.08-.27-.08-.4V3.85c0,.14.03.27.08.4.24.62,1.03,1.18,2.2,1.63,1.87.73,4.72,1.19,7.91,1.19s6.04-.47,7.91-1.19"/><line class="cls-1" x1="1.81" y1="3.85" x2="1.81" y2="3.8"/><line class="cls-1" x1="1.81" y1="8.32" x2="1.81" y2="7.93"/><polyline class="cls-1" points="22.19 3.9 22.19 7.93 22.19 7.97 22.19 8.36"/></svg>