<?xml version="1.0" encoding="UTF-8"?><svg id="Layer_1" xmlns="http://www.w3.org/2000/svg" viewBox="0 0 24 24"><defs><style>.cls-1{fill:#616f80;}.cls-2{fill:none;stroke:#616f80;stroke-linecap:round;stroke-linejoin:round;stroke-width:1.5px;}</style></defs><path class="cls-2" d="m6.44,1.11h14.12v22.19H6.23c-1.54,0-2.79-1.25-2.79-2.79V4.1c0-1.65,1.34-2.99,2.99-2.99Z"/><path class="cls-2" d="m5.87,18.45h14.69v4.84H5.87c-1.34,0-2.42-1.09-2.42-2.42h0c0-1.34,1.09-2.42,2.42-2.42Z"/><path class="cls-1" d="m11.13,10.17h-1.22l-.51-1.51h-2.44l-.5,1.51h-.97l2.1-6.34h1.41l2.12,6.34Zm-2.03-2.42l-.92-2.83-.92,2.83h1.85Z"/><path class="cls-1" d="m18.43,15.53v.98h-4.68v-.9l3.25-4.53h-3.02v-.91h4.36v.91l-3.21,4.45h3.3Z"/></svg>