<?xml version="1.0" encoding="UTF-8"?><svg id="Layer_1" xmlns="http://www.w3.org/2000/svg" viewBox="0 0 24 24"><defs><style>.cls-1{stroke-linecap:round;stroke-linejoin:round;}.cls-1,.cls-2{fill:none;stroke:#9e6fb2;stroke-width:1.5px;}.cls-2{stroke-miterlimit:10;}</style></defs><path class="cls-2" d="m15.99,21.07c-.36.94-1.03,1.53-1.49,1.86-.19.13-.41.2-.64.2h-3.53c-.23,0-.45-.07-.64-.2-.47-.33-1.13-.92-1.49-1.86-.75-1.93.38-3.71.6-4.06.45-.71,1-1.18,1.41-1.47.54.37,1.18.58,1.88.58s1.35-.21,1.89-.58c.41.29.96.76,1.41,1.47.22.35,1.35,2.14.6,4.06Z"/><path class="cls-2" d="m15.43,12.77c0,1.15-.58,2.16-1.46,2.76-.54.37-1.19.58-1.89.58s-1.34-.21-1.88-.58c-.88-.6-1.46-1.62-1.46-2.77,0-1.85,1.5-3.35,3.35-3.35s3.35,1.5,3.35,3.35Z"/><path class="cls-2" d="m8.03,20.52h-2.78c-.23,0-.45-.07-.64-.2-.47-.33-1.13-.92-1.49-1.86-.75-1.93.38-3.71.6-4.06.45-.71,1-1.18,1.41-1.47.54.37,1.18.58,1.88.58s1.2-.12,1.74-.49"/><path class="cls-2" d="m7.01,13.5c-.7,0-1.34-.21-1.88-.58-.88-.6-1.46-1.62-1.46-2.77,0-1.85,1.5-3.35,3.35-3.35,1.62,0,3.37,1.55,3.37,3.08"/><path class="cls-2" d="m16.2,20.54h2.78c.23,0,.45-.07.64-.2.47-.33,1.13-.92,1.49-1.86.75-1.93-.38-3.71-.6-4.06-.45-.71-1-1.18-1.41-1.47-.54.37-1.18.58-1.88.58s-1.2-.12-1.74-.49"/><path class="cls-2" d="m17.21,13.53c.7,0,1.34-.21,1.88-.58.88-.6,1.46-1.62,1.46-2.77,0-1.85-1.5-3.35-3.35-3.35-1.62,0-3.37,1.55-3.37,3.08"/><line class="cls-1" x1="5.46" y1="3.86" x2="8.5" y2="3.86"/><line class="cls-1" x1="18.76" y1="3.86" x2="15.72" y2="3.86"/><line class="cls-1" x1="5.46" y1="3.86" x2="5.46" y2=".82"/><path class="cls-1" d="m17.87,2.83c-.47-.43-1.24-1.02-2.3-1.46-1.17-.47-2.21-.55-3.46-.53-1.1.02-2.43.11-3.46.53-1.07.43-1.83,1.02-2.3,1.46"/><line class="cls-1" x1="18.76" y1="3.86" x2="18.76" y2=".82"/></svg>