<?xml version="1.0" encoding="UTF-8"?><svg id="Layer_1" xmlns="http://www.w3.org/2000/svg" viewBox="0 0 24 24"><defs><style>.cls-1{fill:#fff;}.cls-2{fill:#3d73b8;}</style></defs><circle class="cls-2" cx="12" cy="12" r="12"/><path class="cls-1" d="m12.55,12.03c-.41,0-.76.23-.93.57l-.66-.1-.37-.06-.24-.04-.55-.08-.16-.02.19-.86.71-3.18h-1.83v3.18h-2.55v-3.18h-2.24v7.47h2.24v-2.74h2.55v2.74h2.8c-.19-.06-.37-.14-.54-.24,0,0-.02,0-.03-.01-.65-.37-1.13-.96-1.29-1.66l.67-.1.63-.09.68-.1c.17.33.52.55.91.55.57,0,1.03-.46,1.03-1.03s-.46-1.03-1.03-1.03Z"/><path class="cls-1" d="m20.66,9.89c-.25-.93-1.11-1.62-2.12-1.62h-3.05v1.62h-3.34l-.2.72h0l-.14.49c.43-.25.93-.39,1.46-.39.01,0,.03,0,.04,0,.86.01,1.66.45,2.12,1.17.1.16.18.33.24.5.06.18.1.36.12.56,0,.02,0,.03,0,.05.09,1.22-.78,2.33-2.05,2.75h2.98v-2.75h1.82c.98,0,1.82-.65,2.1-1.54.07-.21.1-.43.1-.66v-.32c0-.2-.03-.39-.08-.58Zm-2.36,1.33c-.14.14-.34.23-.55.23h-1.03v-1.56h1.01c.41,0,.77.31.8.72.02.24-.07.46-.23.61Z"/></svg>