<?xml version="1.0" encoding="UTF-8"?><svg id="Layer_1" xmlns="http://www.w3.org/2000/svg" viewBox="0 0 24 24"><defs><style>.cls-1{fill:#eaeaea;}.cls-2{fill:#50575e;}</style></defs><circle class="cls-1" cx="12" cy="12" r="12"/><path class="cls-2" d="m18.65,8.27v.26c-.25,0-.44.04-.6.13-.15.09-.3.25-.44.49-.09.16-.24.55-.44,1.16l-2.62,7.58h-.28l-2.14-6.01-2.13,6.01h-.25l-2.79-7.81c-.21-.58-.34-.93-.4-1.03-.09-.18-.22-.31-.38-.39-.16-.09-.38-.13-.65-.13v-.26h3.48v.26h-.17c-.25,0-.43.06-.56.17-.13.11-.19.25-.19.4s.1.53.31,1.12l1.85,5.28,1.56-4.49-.28-.79-.22-.63c-.1-.23-.21-.43-.33-.61-.06-.09-.13-.16-.22-.22-.12-.08-.23-.14-.35-.18-.09-.03-.23-.04-.42-.04v-.26h3.66v.26h-.25c-.26,0-.45.06-.57.17-.12.11-.18.26-.18.45,0,.24.1.65.31,1.23l1.8,5.11,1.79-5.18c.2-.57.31-.97.31-1.19,0-.11-.03-.21-.1-.3-.07-.09-.15-.16-.25-.19-.18-.06-.4-.1-.69-.1v-.26h2.81Z"/></svg>