<?xml version="1.0" encoding="UTF-8"?><svg id="Layer_1" xmlns="http://www.w3.org/2000/svg" viewBox="0 0 24 24"><defs><style>.cls-1{fill:none;stroke:#64b5f6;stroke-linecap:round;stroke-linejoin:round;stroke-width:1.5px;}</style></defs><path class="cls-1" d="m19.28,2.7v11.29c0,.69-.55,1.25-1.24,1.25h-8.63l-5.36,4.69v-4.69h-1.95c-.68,0-1.24-.56-1.24-1.25V2.7c0-.69.55-1.25,1.24-1.25h15.94c.68,0,1.24.56,1.24,1.25Z"/><path class="cls-1" d="m6.43,17.86h8.12s5.36,4.69,5.36,4.69v-4.69h1.95c.68,0,1.24-.56,1.24-1.25V5.32c0-.69-.55-1.25-1.24-1.25h-2.57"/><line class="cls-1" x1="3.64" y1="4.37" x2="15.89" y2="4.37"/><line class="cls-1" x1="3.64" y1="8.09" x2="15.89" y2="8.09"/><line class="cls-1" x1="3.64" y1="11.81" x2="10.06" y2="11.81"/></svg>