<?xml version="1.0" encoding="UTF-8"?><svg id="Layer_1" xmlns="http://www.w3.org/2000/svg" viewBox="0 0 24 24"><defs><style>.cls-1{fill:none;stroke:#ffc700;stroke-miterlimit:10;stroke-width:1.5px;}</style></defs><path class="cls-1" d="m20.25,19.15l-.99-2.65c-.07-.2.05-.42.26-.46l2.79-.47c.73-.12.97-1.04.41-1.51l-2.18-1.8c-.17-.14-.17-.39,0-.53l2.18-1.8c.57-.47.32-1.39-.4-1.51l-2.79-.47c-.21-.04-.34-.25-.26-.46l.99-2.65c.26-.69-.42-1.36-1.11-1.11l-2.65.99c-.2.07-.42-.05-.46-.26l-.47-2.79c-.12-.73-1.04-.97-1.51-.4l-1.8,2.18c-.14.17-.39.17-.53,0l-1.8-2.18c-.47-.57-1.39-.32-1.51.4l-.47,2.79c-.04.21-.25.34-.46.26l-2.65-.99c-.69-.26-1.36.42-1.11,1.11l.99,2.65c.07.2-.05.42-.26.46l-2.79.47c-.73.12-.97,1.04-.4,1.51l2.18,1.8c.17.14.17.39,0,.53l-2.18,1.8c-.57.47-.32,1.39.41,1.51l2.79.47c.21.04.34.25.26.46l-.99,2.65c-.26.69.42,1.36,1.11,1.11l2.65-.99c.2-.07.42.05.46.26l.47,2.79c.12.73,1.04.97,1.51.4l1.8-2.18c.14-.17.39-.17.53,0l1.8,2.18c.47.57,1.39.32,1.51-.4l.47-2.79c.04-.21.25-.34.46-.26l2.65.99c.69.26,1.36-.42,1.11-1.11Z"/></svg>