<?xml version="1.0" encoding="UTF-8"?><svg id="Layer_1" xmlns="http://www.w3.org/2000/svg" viewBox="0 0 24 24"><defs><style>.cls-1{fill:#fff;}.cls-2{fill:#68a2fe;}</style></defs><circle class="cls-2" cx="12" cy="12" r="12"/><path class="cls-1" d="m12.69,8h-7.49c-.22,0-.4.18-.4.4v5.14c0,1.36,1.1,2.46,2.46,2.46h7.49c.22,0,.4-.18.4-.4v-5.14c0-1.36-1.1-2.46-2.46-2.46Z"/><path class="cls-1" d="m18.8,8.14l-3.19,2.32c-.07.05-.1.12-.1.21v2.68c0,.08.04.16.1.21l3.19,2.32c.17.12.4,0,.4-.21v-7.31c0-.21-.23-.33-.4-.21Z"/></svg>