<?xml version="1.0" encoding="UTF-8"?><svg id="Layer_1" xmlns="http://www.w3.org/2000/svg" viewBox="0 0 24 24"><defs><style>.cls-1{stroke-width:1.5px;}.cls-1,.cls-2{fill:none;stroke:#659c35;stroke-linecap:round;stroke-linejoin:round;}.cls-3{fill:#659c35;}</style></defs><path class="cls-1" d="m21.16,5.55v16.21c0,.78-.64,1.42-1.42,1.42H4.26c-.78,0-1.42-.64-1.42-1.42V2.24c0-.78.64-1.42,1.42-1.42h11.67v4.73h5.23Z"/><line class="cls-1" x1="15.93" y1=".82" x2="21.16" y2="5.55"/><line class="cls-2" x1="2.84" y1="15.11" x2="21.16" y2="15.11"/><path class="cls-3" d="m6.64,21.62h-.89v-4.93h2.02c.58,0,1,.15,1.28.44s.42.63.42,1.03c0,.45-.15.82-.45,1.09-.3.28-.68.42-1.14.42h-1.23v1.96Zm0-2.72h1.05c.27,0,.48-.07.63-.2.14-.14.22-.31.22-.54,0-.2-.07-.38-.2-.52-.13-.14-.38-.22-.72-.22h-.97v1.48Z"/><path class="cls-3" d="m13.91,21.62h-.86l-1.87-3.15s-.08-.13-.14-.24c-.03-.05-.07-.12-.13-.23v3.61h-.71v-4.93h.98l1.73,2.9s.12.2.31.53v-3.44h.7v4.93Z"/><path class="cls-3" d="m18.74,19.1v2.52h-.39l-.27-.67c-.29.49-.73.74-1.33.74-.67,0-1.17-.25-1.5-.77-.33-.51-.5-1.1-.5-1.77,0-.71.19-1.31.55-1.8.37-.49.89-.74,1.55-.74.5,0,.9.14,1.22.43.32.29.52.65.61,1.08l-.77.14c-.14-.6-.49-.9-1.04-.9-.35,0-.63.14-.86.43-.22.28-.33.72-.33,1.31,0,1.25.39,1.87,1.17,1.87.3,0,.55-.11.75-.31.2-.21.3-.49.3-.83h-1.02v-.71h1.85Z"/><polyline class="cls-2" points="2.84 15.38 9.52 9.71 11.67 11.89 15.77 7.36 21.14 12.6"/><circle class="cls-2" cx="7.15" cy="5.12" r="1.94"/></svg>