<?xml version="1.0" encoding="UTF-8"?><svg id="Layer_1" xmlns="http://www.w3.org/2000/svg" viewBox="0 0 24 24"><defs><style>.cls-1{fill:#f4a800;}.cls-2{fill:none;stroke:#f4a800;stroke-linecap:round;stroke-linejoin:round;stroke-width:1.5px;}</style></defs><path class="cls-2" d="m4.24,9.59l.15-7.35c0-.78.64-1.42,1.42-1.42h11.67v4.73h5.23v16.2c0,.78-.64,1.42-1.42,1.42H5.81c-.78,0-1.42-.64-1.42-1.42v-1.94"/><line class="cls-2" x1="17.48" y1=".82" x2="22.71" y2="5.55"/><path class="cls-2" d="m4.16,6.66h-1.4c-.81,0-1.47.66-1.47,1.47h0c0,.81.66,1.47,1.47,1.47h1.49"/><path class="cls-2" d="m1.29,8.13v9.97c0,.95.77,1.73,1.73,1.73h10.19c.32,0,.6-.19.72-.48l1.84-4.33c.08-.2.08-.42,0-.62l-1.84-4.33c-.12-.29-.41-.48-.72-.48H3.57"/><path class="cls-1" d="m7.36,17.85h-1.13v-6.27h2.57c.73,0,1.27.18,1.63.55.35.37.53.8.53,1.31,0,.57-.19,1.04-.57,1.39-.38.36-.87.53-1.46.53h-1.57v2.48Zm0-3.45h1.34c.35,0,.62-.09.8-.26.18-.17.28-.4.28-.68,0-.26-.08-.48-.25-.66s-.48-.28-.92-.28h-1.23v1.88Z"/></svg>