<?xml version="1.0" encoding="UTF-8"?><svg id="Layer_1" xmlns="http://www.w3.org/2000/svg" viewBox="0 0 24 24"><defs><style>.cls-1{stroke-width:1.5px;}.cls-1,.cls-2{fill:none;stroke:#68a2fe;stroke-linecap:round;stroke-linejoin:round;}.cls-2{stroke-width:.9px;}</style></defs><path class="cls-1" d="m21.13,5.57v16.15c0,.78-.63,1.42-1.42,1.42H4.29c-.78,0-1.42-.63-1.42-1.42V2.27c0-.78.63-1.42,1.42-1.42h11.63v4.71h5.21Z"/><line class="cls-1" x1="15.92" y1=".86" x2="21.13" y2="5.57"/><rect class="cls-2" x="5.91" y="10" width="12.18" height="9.88" rx=".77" ry=".77"/><line class="cls-2" x1="5.91" y1="11.75" x2="18.09" y2="11.75"/><line class="cls-2" x1="18.09" y1="18.12" x2="5.91" y2="18.12"/><line class="cls-2" x1="7.48" y1="11.75" x2="7.48" y2="10"/><line class="cls-2" x1="9.29" y1="11.75" x2="9.29" y2="10"/><line class="cls-2" x1="11.1" y1="11.75" x2="11.1" y2="10"/><line class="cls-2" x1="12.9" y1="11.75" x2="12.9" y2="10"/><line class="cls-2" x1="14.71" y1="11.75" x2="14.71" y2="10"/><line class="cls-2" x1="16.52" y1="11.75" x2="16.52" y2="10"/><line class="cls-2" x1="7.48" y1="19.88" x2="7.48" y2="18.12"/><line class="cls-2" x1="9.29" y1="19.88" x2="9.29" y2="18.12"/><line class="cls-2" x1="11.1" y1="19.88" x2="11.1" y2="18.12"/><line class="cls-2" x1="12.9" y1="19.88" x2="12.9" y2="18.12"/><line class="cls-2" x1="14.71" y1="19.88" x2="14.71" y2="18.12"/><line class="cls-2" x1="16.52" y1="19.88" x2="16.52" y2="18.12"/><polygon class="cls-2" points="13.89 14.83 10.9 13.18 10.9 16.47 13.89 14.83"/></svg>