<?xml version="1.0" encoding="UTF-8"?><svg id="Layer_1" xmlns="http://www.w3.org/2000/svg" viewBox="0 0 24 24"><defs><style>.cls-1,.cls-2,.cls-3{fill:none;stroke:#64b5f6;stroke-width:1.5px;}.cls-1,.cls-3{stroke-linejoin:round;}.cls-2{stroke-miterlimit:10;}.cls-4{fill:#64b5f6;}.cls-3{stroke-linecap:round;}</style></defs><path class="cls-1" d="m4.84,18.98c-1.25,0-2.26-1.01-2.26-2.26V3.42c0-1.34,1.09-2.43,2.43-2.43h11.44v2.52"/><path class="cls-2" d="m6.11,18.98h-1.57c-1.08,0-1.96-.88-1.96-1.96h0c0-1.08.88-1.96,1.96-1.96h1.62"/><path class="cls-3" d="m21.42,23.01h-11.61c-1.25,0-2.26-1.01-2.26-2.26V7.45c0-1.34,1.09-2.43,2.43-2.43h11.44v17.99Z"/><path class="cls-3" d="m21.42,23.01h-11.91c-1.08,0-1.96-.88-1.96-1.96h0c0-1.08.88-1.96,1.96-1.96h11.91s0,3.93,0,3.93Z"/><path class="cls-4" d="m4.33,3.38c0-.38.3-.68.68-.68h9.69v.8l-4.7.03c-2.1.01-3.8,1.72-3.81,3.82l-.02,5.91h-1.63c-.07,0-.14,0-.21,0V3.38Z"/></svg>