<?xml version="1.0" encoding="UTF-8"?><svg id="Layer_1" xmlns="http://www.w3.org/2000/svg" viewBox="0 0 24 24"><defs><style>.cls-1{fill:none;stroke:#f4a800;stroke-linecap:round;stroke-linejoin:round;stroke-width:1.5px;}</style></defs><path class="cls-1" d="m23.08,14.7c0,1.65-1.34,2.99-2.99,2.99-.79,0-1.51-.31-2.04-.81v6.21h-6.3c.49-.53.79-1.24.79-2.02,0-1.65-1.34-2.99-2.99-2.99s-2.99,1.34-2.99,2.99c0,.78.3,1.49.79,2.02H1.27v-6.35c.54.58,1.32.94,2.18.94,1.65,0,2.99-1.34,2.99-2.99s-1.34-2.99-2.99-2.99c-.86,0-1.63.36-2.18.94v-6.35h6.95c-.58-.54-.95-1.32-.95-2.18,0-1.65,1.34-2.99,2.99-2.99s2.99,1.34,2.99,2.99c0,.86-.36,1.63-.94,2.18h5.76v6.21c.53-.5,1.25-.81,2.04-.81,1.65,0,2.99,1.34,2.99,2.99Z"/></svg>