<?xml version="1.0" encoding="UTF-8"?><svg id="Layer_1" xmlns="http://www.w3.org/2000/svg" viewBox="0 0 24 24"><defs><style>.cls-1{fill:none;stroke:#9e6fb2;stroke-linecap:round;stroke-linejoin:round;stroke-width:1.5px;}</style></defs><rect class="cls-1" x="7.64" y=".91" width="8.73" height="4.5" rx=".76" ry=".76"/><path class="cls-1" d="m16.36,3.16h3.27c.8,0,1.45.65,1.45,1.45v17.03c0,.8-.65,1.45-1.45,1.45H4.36c-.8,0-1.45-.65-1.45-1.45V4.61c0-.8.65-1.45,1.45-1.45h3.27"/><line class="cls-1" x1="8.77" y1="8.99" x2="18.19" y2="8.99"/><line class="cls-1" x1="5.81" y1="8.99" x2="5.81" y2="8.99"/><line class="cls-1" x1="5.81" y1="13.87" x2="5.81" y2="13.87"/><line class="cls-1" x1="5.81" y1="18.76" x2="5.81" y2="18.76"/><line class="cls-1" x1="8.77" y1="13.87" x2="18.19" y2="13.87"/><line class="cls-1" x1="8.77" y1="18.76" x2="18.19" y2="18.76"/></svg>