<?xml version="1.0" encoding="UTF-8"?><svg id="Layer_1" xmlns="http://www.w3.org/2000/svg" viewBox="0 0 24 24"><defs><style>.cls-1{fill:none;stroke:#64b5f6;stroke-linecap:round;stroke-linejoin:round;stroke-width:1.5px;}</style></defs><path class="cls-1" d="m12.02,6.66v12.63c-.36-.28-2.33-1.31-4.16-1.52s-3.71-.02-5.14.18V3.71c2.11,0,4.22,0,6.33,0,.24,0,1.11.02,1.92.67.04.03.08.07.12.1.61.55.94,1.35.94,2.18Z"/><path class="cls-1" d="m2.72,5.97c-1.39,0-1.89.6-1.89.6,0,4.55,0,9.1,0,13.65,1.58-.15,3.93-.8,6.14-.51,1.24.16,2.36.4,3.35.67.06.02.79.22,1.32-.24.02-.02.05-.04.07-.07.21-.22.32-.52.32-.82v-1.43"/><path class="cls-1" d="m12.02,6.66v12.63c.36-.28,2.33-1.31,4.16-1.52s3.71-.02,5.14.18V3.71h-6.33c-.24,0-1.11.02-1.92.67-.04.03-.08.07-.12.1-.61.55-.94,1.35-.94,2.18Z"/><path class="cls-1" d="m21.32,5.97c1.39,0,1.89.6,1.89.6,0,4.55,0,9.1,0,13.65-1.58-.15-3.93-.8-6.14-.51-1.24.16-2.36.4-3.35.67-.06.02-.79.22-1.32-.24-.02-.02-.05-.04-.07-.07-.21-.22-.32-.52-.32-.82v-1.43"/></svg>