<?xml version="1.0" encoding="UTF-8"?><svg id="Layer_1" xmlns="http://www.w3.org/2000/svg" viewBox="0 0 24 24"><defs><style>.cls-1,.cls-2{fill:none;stroke:#f44236;stroke-linecap:round;stroke-linejoin:round;}.cls-2{stroke-width:1.5px;}</style></defs><path class="cls-2" d="m21.42,5.56v16.15c0,.78-.63,1.42-1.42,1.42H4.57c-.78,0-1.42-.63-1.42-1.42V2.26c0-.78.63-1.42,1.42-1.42h11.63v4.71h5.21Z"/><line class="cls-2" x1="16.2" y1=".85" x2="21.42" y2="5.56"/><path class="cls-1" d="m11.93,14.55c-2.13.4-4.43,1.14-5.87,2.85-.27.32-.54.68-.56,1.11-.02.33.14.7.46.84.36.16.79.02,1.12-.19.68-.44,1.1-1.17,1.48-1.86.44-.8.8-1.64,1.25-2.43.46-.81.9-1.62,1.29-2.46s.85-1.66,1.15-2.54c.37-1.05.52-2.23.1-3.26-.15-.37-.42-.74-.81-.78-.3-.03-.6.15-.77.4s-.24.56-.26.86c-.09,1.05.23,2.1.72,3.04s1.13,1.78,1.73,2.65c.34.49.75.91,1.14,1.35s.83.93,1.3,1.35c.68.62,1.59,1.24,2.54,1.3.44.03.95-.13,1.12-.54.14-.34-.01-.74-.28-.99s-.62-.38-.97-.49c-1.88-.57-3.92-.58-5.87-.21Z"/></svg>